<svg width="22" height="32" viewBox="0 0 22 32" fill="none" xmlns="http://www.w3.org/2000/svg">
<path d="M10.9307 8.39526H17.7701C19.5911 8.39526 21.0697 9.87381 21.0697 11.6948V12.7C21.0697 14.521 19.5911 15.9995 17.7701 15.9995H10.9307V8.39526Z" fill="#FFF7AA"/>
<path d="M4.09053 15.9995H10.93V23.6038H4.09053C2.26956 23.6038 0.791016 22.1252 0.791016 20.3042V19.299C0.791016 17.4781 2.26956 15.9995 4.09053 15.9995Z" fill="#00BB99"/>
<path d="M14.7326 32C12.1993 32 10.1386 29.9389 10.1386 27.406V24.3961H4.594C2.0607 24.3961 0 22.3351 0 19.8021C0 17.2692 2.06106 15.2081 4.594 15.2081H10.1386V9.188H7.12875C4.59545 9.188 2.53475 7.12694 2.53475 4.594C2.53475 2.06106 4.59581 0 7.12875 0C9.66169 0 11.7228 2.06106 11.7228 4.594V7.60388H17.2674C19.8007 7.60388 21.8614 9.66494 21.8614 12.1979C21.8614 14.7308 19.8003 16.7919 17.2674 16.7919H11.7228V22.812H14.7326C17.2659 22.812 19.3266 24.8731 19.3266 27.406C19.3266 29.9389 17.2656 32 14.7326 32ZM11.7228 24.3958V27.4056C11.7228 29.0653 13.0729 30.4155 14.7326 30.4155C16.3923 30.4155 17.7425 29.0653 17.7425 27.4056C17.7425 25.7459 16.3923 24.3958 14.7326 24.3958H11.7228ZM4.594 16.7915C2.9343 16.7915 1.58413 18.1417 1.58413 19.8014C1.58413 21.4611 2.9343 22.8113 4.594 22.8113H10.1386V16.7912H4.594V16.7915ZM11.7228 15.2074H17.2674C18.9271 15.2074 20.2772 13.8572 20.2772 12.1975C20.2772 10.5378 18.9271 9.18764 17.2674 9.18764H11.7228V15.2078V15.2074ZM7.12839 1.5834C5.46869 1.5834 4.11851 2.93358 4.11851 4.59328C4.11851 6.25298 5.46869 7.60316 7.12839 7.60316H10.1383V4.59328C10.1383 2.93358 8.78809 1.5834 7.12839 1.5834V1.5834Z" fill="black"/>
</svg>
