<svg width="1012" height="304" viewBox="0 0 1012 304" fill="none" xmlns="http://www.w3.org/2000/svg">
<rect width="1012" height="304" fill="white"/>
<path fill-rule="evenodd" clip-rule="evenodd" d="M937.017 219.168C936.621 219.526 936.233 219.876 935.851 220.221C935.048 220.946 934.27 221.647 933.503 222.362C926.862 228.53 918.872 231.637 909.955 232.704C901.32 233.735 892.937 232.908 884.754 229.847C874.669 226.075 866.797 219.681 860.837 210.802C853.897 200.467 851.392 188.918 851.11 176.735C850.846 165.432 852.888 154.63 858.508 144.673C863.793 135.299 871.161 128.001 880.8 123.016C889.881 118.318 899.537 116.167 909.756 116.557C919.488 116.925 928.335 119.886 936.213 125.605C936.727 125.978 937.244 126.345 937.877 126.793C938.053 126.919 938.239 127.05 938.436 127.19V125.529C938.436 123.199 938.424 120.869 938.412 118.538V118.538V118.537V118.536V118.536L938.412 118.501C938.382 112.937 938.353 107.371 938.489 101.809C938.606 96.9178 934.265 91.5606 928.493 91.9045C925.912 92.0561 924.903 90.9252 924.903 88.3952V85.7777C924.903 83.819 925.677 82.6473 927.531 81.9419C930.175 80.9358 932.816 79.9229 935.457 78.91L935.458 78.9097L935.46 78.9086L935.484 78.8997C943.85 75.691 952.215 72.483 960.658 69.4902C962.48 68.8446 964.604 68.9682 966.685 69.0893C967.291 69.1246 967.893 69.1596 968.484 69.1754C969.481 69.2046 970.402 71.0525 970.284 72.1018L970.214 72.7489V72.7492V72.7496V72.7499V72.7502V72.7505C969.093 83.0323 967.974 93.2949 968.032 103.692C968.213 136.603 968.17 169.514 968.046 202.42C968.717 205.05 970.379 207.054 972.987 208.4C974.289 209.074 975.914 209.21 977.467 209.34C977.712 209.36 977.956 209.38 978.197 209.403C979.962 209.566 981.253 210.72 981.265 212.492C981.265 212.809 981.254 213.127 981.244 213.444C981.222 214.15 981.199 214.856 981.288 215.547C981.54 217.57 980.35 218.642 978.771 219.324C977.345 219.94 975.918 220.557 974.491 221.174C966.03 224.832 957.566 228.491 949.012 231.928C947.542 232.52 945.779 232.435 944.047 232.352C943.477 232.325 942.911 232.298 942.359 232.295C941.711 232.295 941.02 231.876 940.421 231.512L940.347 231.467C939.473 230.943 939.303 230.097 939.315 229.095C939.353 225.905 939.348 222.712 939.342 219.333C939.342 219.139 939.342 218.945 939.341 218.749C938.313 218.49 937.42 218.566 937.017 219.162V219.168ZM938.425 173.884C938.406 173.5 938.388 173.031 938.367 172.503C938.319 171.237 938.257 169.63 938.137 168.026C937.515 159.69 935.843 151.616 931.819 144.172C929.59 140.038 926.592 136.593 922.433 134.232C918.819 132.18 914.883 131.358 910.783 131.3C904.951 131.213 899.613 132.617 894.99 136.383C891.037 139.601 888.649 143.828 886.737 148.375C884.061 154.74 882.771 161.444 882.354 168.3C881.668 179.574 882.407 190.685 886.742 201.306C888.502 205.608 890.784 209.607 894.298 212.755C899.015 216.982 904.693 218.515 910.917 218.375C914.766 218.287 918.491 217.599 921.917 215.757C927.859 212.563 931.338 207.334 933.808 201.329C937.298 192.848 938.337 183.928 938.43 173.884H938.425ZM402.153 131.876C401.699 132.364 401.226 132.873 400.719 133.404V132.186V92.4637C400.719 92.0265 400.737 91.5892 400.784 91.1579C401.463 84.807 402.147 78.4618 402.832 72.1168L402.837 72.0722C402.954 71.0054 402.021 69.1866 401.048 69.1691C400.424 69.1582 399.789 69.1257 399.15 69.093C397.054 68.9858 394.925 68.8769 393.081 69.5247C384.844 72.4099 376.684 75.5056 368.523 78.6018L368.522 78.6022L368.514 78.605L368.513 78.6054L368.513 78.6055C365.646 79.6933 362.778 80.7811 359.907 81.8599C358.312 82.4603 357.561 83.5562 357.561 85.2759C357.561 85.6444 357.557 86.0129 357.552 86.3812L357.552 86.3828C357.542 87.3251 357.531 88.2666 357.59 89.205C357.619 89.7296 357.901 90.2718 358.171 90.744C358.845 91.939 359.989 92.0265 361.215 91.9332C366.677 91.5193 371.065 96.6609 371.065 101.499C371.046 117.723 371.042 133.945 371.038 150.166V150.167V150.168V150.168V150.169V150.194C371.033 169.128 371.029 188.062 371 206.995C371 208.447 370.654 210.044 369.974 211.315C367.997 215.011 364.823 216.87 360.511 216.66C358.957 216.585 357.578 217.791 357.567 219.173C357.537 221.936 357.543 224.705 357.567 227.468C357.578 228.71 358.939 230.027 360.195 230.027C377.301 230.033 394.401 230.033 411.501 230.027C412.909 230.022 414.235 228.675 414.241 227.253C414.245 226.408 414.24 225.562 414.235 224.716V224.716V224.716V224.715V224.715C414.226 223.087 414.216 221.458 414.27 219.832C414.306 218.759 414.094 217.82 413.138 217.372C412.276 216.964 411.273 216.695 410.322 216.672C404.955 216.555 400.725 212.44 400.713 207.118V207.115V207.111V207.108V207.105V207.102V207.099C400.69 192.607 400.666 178.11 400.725 163.612C400.748 157.229 401.804 151.056 405.312 145.523C408.357 140.726 412.481 137.257 417.913 135.392C421.785 134.057 425.78 133.929 429.781 134.395C433.201 134.797 436.422 135.899 439.302 137.881C444.74 141.624 446.887 147.127 446.952 153.312C447.128 169.35 447.088 185.394 447.049 201.433V201.435V201.436V201.438V201.439V201.444C447.043 203.491 447.038 205.537 447.034 207.584C447.028 208.89 446.693 210.335 446.054 211.461C444.142 214.818 441.226 216.695 437.208 216.655C434.491 216.625 433.594 217.558 433.594 220.281C433.594 221.055 433.592 221.831 433.59 222.606V222.607V222.607C433.586 224.16 433.582 225.713 433.594 227.264C433.606 228.669 434.949 230.033 436.334 230.033H487.494C489.042 230.033 490.374 228.669 490.374 227.089C490.378 225.473 490.377 223.856 490.375 222.239C490.375 221.431 490.374 220.623 490.374 219.814C490.374 217.797 489.195 216.509 487.148 216.678C481.786 217.121 476.711 212.277 476.799 206.523C477.002 193.255 476.955 179.984 476.909 166.713V166.712V166.712V166.711V166.711V166.71C476.896 163.054 476.883 159.398 476.876 155.743C476.87 150.84 476.512 145.955 475.133 141.21C472.922 133.567 468.692 127.347 461.881 123.016C451.416 116.364 439.906 115.443 428.021 117.326C419.04 118.749 411.361 122.963 404.785 129.16C403.897 129.999 403.062 130.897 402.153 131.876ZM801.3 216.783C801.639 216.386 801.999 215.965 802.393 215.511L802.387 215.529C802.387 216.816 802.389 218.07 802.392 219.299V219.331V219.346V219.346V219.347V219.348C802.397 222.721 802.402 225.909 802.364 229.094C802.352 230.097 802.522 230.942 803.396 231.467L803.47 231.511C804.069 231.875 804.761 232.294 805.409 232.294C805.96 232.297 806.527 232.325 807.096 232.352C808.828 232.435 810.591 232.519 812.061 231.927C820.615 228.49 829.079 224.831 837.541 221.173C838.967 220.556 840.394 219.94 841.821 219.324C843.399 218.642 844.59 217.569 844.337 215.546C844.248 214.855 844.271 214.15 844.293 213.444C844.304 213.126 844.314 212.808 844.314 212.492C844.302 210.72 843.012 209.565 841.246 209.402C841.119 209.39 840.992 209.379 840.863 209.368C840.753 209.359 840.641 209.349 840.53 209.34L840.516 209.339C838.963 209.209 837.338 209.074 836.036 208.399C832.546 206.598 830.751 203.619 830.757 199.539C830.792 180.398 830.788 161.257 830.783 142.116C830.782 135.741 830.78 129.367 830.78 122.992C830.78 120.654 829.701 119.599 827.319 119.599C826.719 119.599 826.119 119.603 825.519 119.607C824.019 119.616 822.519 119.626 821.019 119.576C820.08 119.541 819.517 119.873 818.96 120.608C816.487 123.868 813.983 127.101 811.477 130.335L810.606 131.459L810.111 132.098C809.856 132.428 809.6 132.758 809.345 133.089C808.424 134.278 807.954 134.295 806.922 133.211C806.687 132.966 806.464 132.704 806.241 132.447C801.261 126.735 795.307 122.38 788.179 119.663C778.734 116.061 769.02 115.699 759.2 117.611C748.406 119.71 738.879 124.385 730.947 132.039C724.23 138.522 719.567 146.275 716.739 155.13C714.715 161.466 713.853 167.972 713.771 174.6C713.636 185.466 715.32 195.942 720.488 205.677C724.377 213.005 729.522 219.277 736.421 223.993C748.177 232.032 761.264 234.434 775.232 232.487C785.005 231.123 792.778 226.028 799.372 218.974C800.008 218.295 800.612 217.588 801.3 216.783ZM744.404 175.76L744.407 175.509L744.408 175.396C744.408 175.339 744.409 175.283 744.409 175.226C744.41 175.097 744.411 174.968 744.411 174.839L744.405 174.833C744.493 165.821 745.367 156.925 748.939 148.508C750.652 144.474 752.782 140.673 755.991 137.566C759.628 134.05 764.022 132.092 769.008 131.52C774.915 130.844 780.612 131.52 785.768 134.773C789.481 137.117 792.227 140.317 794.327 144.135C798.146 151.067 799.918 158.552 800.622 166.346C801.384 174.793 801.15 183.199 799.425 191.517C798.105 197.883 795.899 203.952 791.951 209.21C787.1 215.68 780.4 218.479 772.369 218.391C762.408 218.286 755.363 213.629 750.77 204.972C746.223 196.391 744.757 187.134 744.411 177.602C744.391 176.989 744.398 176.376 744.404 175.762V175.76ZM701.364 200.658C702.508 197.207 703.975 190.812 699.892 188.573C696.788 186.871 692.899 189.378 690.904 191.657C690.617 191.99 690.3 192.223 689.978 192.374C682.656 200.81 673.176 205.91 662.212 208.539C652.498 210.871 643.182 209.734 634.594 204.459C627.918 200.361 623.436 194.473 620.638 186.976C620.948 186.864 621.233 186.762 621.501 186.665C621.876 186.529 622.22 186.405 622.562 186.282C647.722 177.183 672.883 168.083 698.05 158.977C699.821 158.336 700.572 156.698 699.915 154.984C696.448 145.96 691.567 137.805 684.815 130.821C678.814 124.613 671.645 120.246 663.374 117.67C654.516 114.907 645.605 114.959 636.629 117.063C621.799 120.538 609.351 127.749 600.282 140.107C590.79 153.043 587.44 167.564 590.262 183.239C592.415 195.202 597.589 205.887 606.048 214.847C616.115 225.503 628.534 231.455 643.153 232.609C656.938 233.699 669.698 230.114 681.383 222.938C690.224 217.511 696.818 210.212 701.235 201.223C701.258 201.043 701.299 200.856 701.364 200.664V200.658ZM614.783 170.473C612.442 161.554 613.528 153.031 618.162 145.074C621.758 138.901 627.319 134.966 634.048 132.669C638.77 131.06 643.604 130.325 648.591 131.404C655.114 132.809 660.077 136.347 663.321 142.124C664.336 143.926 665.175 145.873 665.755 147.855C666.911 151.807 665.216 155.322 661.332 156.826C656.542 158.68 651.716 160.437 646.887 162.194C644.791 162.958 642.695 163.721 640.601 164.492L639.774 164.789C632.705 167.348 625.642 169.902 618.567 172.455C616.666 173.143 615.282 172.403 614.777 170.479L614.783 170.473ZM272.959 133.941H287.683L287.689 133.935V136.156C287.689 141.407 287.689 146.659 287.688 151.909V151.91V151.911C287.687 167.661 287.686 183.409 287.695 199.161C287.695 203.387 288.047 207.573 289.103 211.694C291.303 220.293 296.717 226.151 304.655 229.876C311.782 233.222 319.309 233.782 326.982 232.593C334.18 231.479 340.251 228.226 344.968 222.607C348.177 218.783 350.318 214.393 351.831 209.712C352.037 209.082 351.274 207.835 350.605 207.316C349.937 206.801 349.085 206.518 348.238 206.237C347.954 206.142 347.672 206.049 347.396 205.946C346.241 205.515 345.314 205.935 344.61 206.867C344.385 207.163 344.195 207.483 344.004 207.804C343.872 208.027 343.739 208.25 343.595 208.465C340.539 213.047 336.509 215.955 330.748 216.165C325.527 216.358 320.658 213.938 318.916 209.52C317.983 207.147 317.513 204.442 317.502 201.883C317.421 184.97 317.429 168.057 317.438 151.143C317.44 145.94 317.443 140.736 317.443 135.532V133.935H319.414H344.481C346.346 133.935 347.596 132.676 347.596 130.793V122.789C347.59 120.76 346.417 119.583 344.393 119.583H319.326H317.443V117.875C317.443 115.629 317.439 113.384 317.435 111.138V111.137V111.137V111.136V111.135C317.424 104.846 317.412 98.5541 317.49 92.2659C317.513 90.5928 316.845 89.287 315.548 88.9197C314.14 88.5233 312.404 88.1736 310.996 89.4502C308.588 91.6294 306.18 93.8092 303.773 95.9888L303.763 95.9977L303.762 95.9987C292.996 105.746 282.232 115.49 271.41 125.173C269.785 126.631 268.993 128.047 269.163 130.251C269.369 132.944 270.213 133.941 272.959 133.941ZM541.495 134.502C540.899 135.406 540.304 136.308 539.689 137.189C539.693 137.115 539.696 137.034 539.699 136.947L539.7 136.94C539.711 136.642 539.726 136.28 539.77 135.922C539.92 134.756 540.064 133.59 540.209 132.423C540.612 129.168 541.014 125.913 541.541 122.678C541.77 121.273 541.017 120.646 540.235 119.994C540.134 119.91 540.033 119.826 539.934 119.74C539.693 119.533 539.195 119.563 538.785 119.587C538.744 119.59 538.705 119.592 538.667 119.594C537.952 119.63 537.217 119.615 536.481 119.6C534.825 119.567 533.167 119.533 531.733 120.078C523.927 123.045 516.188 126.193 508.447 129.341C505.891 130.381 503.335 131.421 500.776 132.454C499.181 133.095 498.406 134.232 498.406 135.881V138.79C498.406 141.402 499.427 142.428 502.055 142.428C507.863 142.44 511.963 146.404 511.975 152.169C512.004 170.404 512.004 188.644 511.94 206.879C511.934 208.377 511.617 210.032 510.919 211.338C509.106 214.748 506.203 216.672 502.172 216.655C499.292 216.643 498.4 217.564 498.4 220.444C498.4 221.203 498.398 221.963 498.397 222.723C498.393 224.243 498.389 225.762 498.4 227.282C498.406 228.617 499.82 230.033 501.175 230.033C518.275 230.039 535.376 230.039 552.476 230.033C553.855 230.033 555.216 228.657 555.222 227.27C555.229 225.653 555.227 224.037 555.224 222.42C555.223 221.612 555.222 220.803 555.222 219.995C555.222 217.745 554.13 216.649 551.895 216.649C545.73 216.643 541.688 212.661 541.688 206.57C541.688 203.416 541.687 200.262 541.686 197.109V197.108C541.682 187.649 541.679 178.193 541.706 168.736C541.711 166.27 541.794 163.793 542.063 161.339C542.849 154.169 544.856 147.383 548.88 141.285C550.746 138.458 553.098 136.132 556.049 134.243C556.09 134.47 556.131 134.677 556.17 134.873C556.234 135.199 556.292 135.493 556.336 135.788C557.721 145.378 567.148 152.525 578.335 149.237C585.814 147.039 590.29 140.067 589.792 131.941C589.358 124.835 583.673 118.405 576.405 117.128C563.945 114.942 553.861 119.361 545.771 128.612C544.177 130.433 542.835 132.47 541.497 134.499L541.497 134.499L541.495 134.502Z" fill="black"/>
<path d="M52.3039 58.5552C52.3039 40.5755 66.8794 26 84.8591 26V26C102.839 26 117.414 40.5755 117.414 58.5552L117.414 91.1104L84.8591 91.1104C66.8794 91.1104 52.3039 76.5349 52.3039 58.5552V58.5552Z" fill="#00BB99" stroke="black" stroke-width="14.7429"/>
<path d="M182.524 251.445C182.524 269.424 167.949 284 149.969 284V284C131.989 284 117.414 269.424 117.414 251.445L117.414 218.889L149.969 218.889C167.949 218.889 182.524 233.465 182.524 251.445V251.445Z" fill="#F0FEB6" stroke="black" stroke-width="14.7429"/>
<path d="M209.383 123.666C209.383 105.686 194.808 91.1108 176.828 91.1108L117.415 91.1109L117.415 156.221L176.828 156.221C194.808 156.221 209.383 141.646 209.383 123.666V123.666Z" fill="#F0FEB6" stroke="black" stroke-width="14.7429"/>
<path d="M27 187.677C27 170.305 41.083 156.222 58.4553 156.222L115.861 156.222L115.861 219.132L58.4553 219.132C41.083 219.132 27 205.049 27 187.677V187.677Z" fill="#00BB99" stroke="black" stroke-width="14.7429"/>
</svg>
