<svg width="4352" height="1229" viewBox="0 0 4352 1229" fill="none" xmlns="http://www.w3.org/2000/svg">
<g clip-path="url(#clip0_12478_33496)">
<path d="M565.573 1229C468.331 1229 389.211 1149.85 389.211 1052.56V936.96H176.361C79.1194 936.96 0 857.805 0 760.52C0 663.234 79.1194 584.079 176.361 584.079H389.211V352.881H273.664C176.422 352.881 97.3028 273.726 97.3028 176.441C97.3028 79.1549 176.422 0 273.664 0C370.906 0 450.026 79.1549 450.026 176.441V292.04H662.876C760.118 292.04 839.237 371.195 839.237 468.48C839.237 565.766 760.118 644.921 662.876 644.921H450.026V876.119H565.573C662.815 876.119 741.934 955.274 741.934 1052.56C741.934 1149.85 662.815 1229 565.573 1229ZM450.026 936.96V1052.56C450.026 1116.3 501.864 1168.16 565.573 1168.16C629.282 1168.16 681.12 1116.3 681.12 1052.56C681.12 988.822 629.282 936.96 565.573 936.96H450.026ZM176.361 644.921C112.652 644.921 60.8143 696.782 60.8143 760.52C60.8143 824.257 112.652 876.119 176.361 876.119H389.211V644.921H176.361ZM450.026 584.079H662.876C726.585 584.079 778.423 532.218 778.423 468.48C778.423 404.743 726.585 352.881 662.876 352.881H450.026V584.079ZM273.664 60.8416C209.955 60.8416 158.117 112.703 158.117 176.441C158.117 240.178 209.955 292.04 273.664 292.04H389.211V176.441C389.211 112.703 337.373 60.8416 273.664 60.8416Z" fill="#00B398"/>
<path d="M2439.54 336.234C2370.5 336.234 2317.4 380.868 2289.78 440.371L2299.14 369.125C2300.4 359.573 2292.98 351.104 2283.34 351.104H2257.91L2106.44 412.347C2100.42 414.781 2096.47 420.634 2096.47 427.12V443.547C2096.47 477.18 2160.2 440.602 2160.2 501.991V769.767C2160.2 792.412 2139.73 812.271 2119.83 812.271C2110.05 812.271 2096.47 812.113 2096.47 828.212V860.093C2096.47 868.89 2103.6 876.033 2112.41 876.033H2348.2C2356.99 876.033 2364.13 868.903 2364.13 860.093V828.212C2364.13 813.001 2351.13 812.271 2342.88 812.271C2319.26 812.271 2300.4 789.139 2300.4 769.767V580.623C2300.4 506.238 2326.95 445.676 2368.38 420.171C2370.5 462.675 2404.49 495.615 2448.03 495.615C2491.57 495.615 2527.68 460.546 2527.68 416.983C2527.68 373.421 2491.57 336.222 2439.53 336.222L2439.54 336.234ZM1374.46 787.922C1346.01 775.511 1348.76 812.271 1279.39 809.667C1251.47 808.621 1230.43 790.356 1230.43 746.793V420.573H1356.83C1365.62 420.573 1372.76 413.442 1372.76 404.633V368.505C1372.76 359.707 1365.63 352.564 1356.83 352.564H1230.43V221.864C1230.43 213.067 1223.3 205.924 1214.5 205.924H1203.88L1003.14 388.692V404.633C1003.14 413.43 1010.27 420.573 1019.08 420.573H1090.24V737.229C1090.24 847.742 1163.52 892.363 1244.25 892.363C1347.05 892.363 1407.58 802.366 1374.46 787.922ZM2022.77 812.308C2002.97 812.308 1986.13 791.853 1986.13 769.779V517.944C1986.13 395.75 1909.67 336.234 1799.2 336.234C1724.85 336.234 1666.43 368.115 1627.13 416.996V219.346L1636.78 128.582C1637.78 119.164 1630.41 110.962 1620.93 110.962H1595.26L1433.49 172.169C1427.3 174.518 1423.19 180.456 1423.19 187.075V203.405C1423.19 212.203 1430.32 219.346 1439.12 219.346C1468.79 219.346 1486.92 240.604 1486.92 261.85V769.767C1486.92 792.412 1466.45 812.271 1446.55 812.271C1436.77 812.271 1423.2 812.113 1423.2 828.212V860.093C1423.2 868.89 1430.33 876.033 1439.13 876.033H1674.92C1683.72 876.033 1690.86 868.903 1690.86 860.093V828.212C1690.86 813.001 1682.54 812.308 1663.76 812.308C1643.96 812.308 1627.12 791.853 1627.12 769.779V559.389C1627.12 472.252 1679.17 420.184 1746.07 420.184C1803.43 420.184 1845.92 452.065 1845.92 522.191V769.779C1845.92 792.425 1825.45 812.283 1805.55 812.283C1795.77 812.283 1782.2 812.125 1782.2 828.224V860.105C1782.2 868.903 1789.33 876.045 1798.13 876.045H2033.92C2042.71 876.045 2049.85 868.915 2049.85 860.105V828.224C2049.85 813.013 2041.54 812.32 2022.76 812.32L2022.77 812.308ZM4335.95 778.273H4335.89L4335.86 778.346V778.273H4330.64C4309.4 778.273 4288.16 757.015 4288.16 735.769V219.346L4297.81 128.582C4298.8 119.164 4291.43 110.962 4281.96 110.962H4256.28L4094.41 173.009C4088.24 175.369 4084.18 181.295 4084.18 187.891V203.405C4084.18 212.203 4091.3 219.346 4100.11 219.346H4105.46C4126.71 219.346 4147.95 240.604 4147.95 261.85V387.232C4116.08 360.668 4070.41 336.222 4001.37 336.222C3866.49 336.222 3735.84 439.3 3735.84 613.563C3735.84 808.012 3866.49 890.903 3979.07 890.903C4059.79 890.903 4108.65 862.21 4141.57 821.835V870.716C4141.57 879.513 4148.7 886.656 4157.51 886.656H4190.43L4341.98 824.537C4347.96 822.079 4351.87 816.262 4351.87 809.789V794.213C4351.87 785.416 4344.74 778.273 4335.94 778.273H4335.95ZM4015.19 820.777C3920.66 820.777 3882.42 727.263 3882.42 613.575C3882.42 499.886 3920.66 406.373 4015.19 406.373C4109.72 406.373 4147.96 499.886 4147.96 613.575C4147.96 727.263 4109.72 820.777 4015.19 820.777ZM3700.6 778.273H3695.28C3674.03 778.273 3652.8 757.015 3652.8 735.769V367.045C3652.8 358.247 3645.67 351.104 3636.86 351.104H3600.75L3548.76 419.113C3483.89 349.498 3421.06 336.234 3368.14 336.234C3231.12 336.234 3100.48 436.124 3100.48 618.88C3100.48 789.954 3213.06 890.903 3351.15 890.903C3429.74 890.903 3479.66 857.963 3518.96 806.954V870.716C3518.96 879.513 3526.08 886.656 3534.89 886.656H3561.44L3706.85 824.464C3712.71 821.957 3716.52 816.189 3716.52 809.813V794.213C3716.52 785.416 3709.39 778.273 3700.58 778.273H3700.6ZM3378.78 820.777C3284.25 820.777 3244.95 727.263 3244.95 613.575C3244.95 499.886 3284.25 406.373 3378.78 406.373C3473.31 406.373 3512.61 499.886 3512.61 613.575C3512.61 727.263 3473.31 820.777 3378.78 820.777ZM3046.11 659.315C3015.45 649.483 3019.77 719.743 2903.48 768.125C2792.58 814.267 2706.47 759.132 2674.49 670.413L3021.13 522.665L3034.8 516.861H3034.84V516.849C3039.12 515.011 3041.11 510.059 3039.31 505.751L3039.34 505.703C3009.32 416.655 2907.8 331.927 2795.33 336.344C2763.68 337.585 2729.6 341.71 2694.19 356.75C2550.48 417.786 2488.75 560.107 2540.16 707.599C2579.62 820.789 2687.29 890.915 2795.33 890.915C3026.65 890.915 3085.39 671.934 3046.13 659.328L3046.11 659.315ZM2649.62 602.015C2647.54 601.175 2644.34 600.092 2641.81 591.161C2620.58 516.472 2649.8 440.785 2722.11 410.072C2787.62 382.255 2849.04 404.657 2876.02 468.224C2883.48 485.832 2882.57 508.148 2852.26 521.022L2721.34 576.62C2677.61 595.188 2653.7 603.649 2649.62 602.003V602.015Z" fill="#00B398"/>
</g>
<defs>
<clipPath id="clip0_12478_33496">
<rect width="4351.87" height="1229" fill="#00B398"/>
</clipPath>
</defs>
</svg>
